<svg width="101" height="25" viewBox="0 0 101 25" fill="none" xmlns="http://www.w3.org/2000/svg">
<path d="M31.5262 19.7821L32.7467 16.9296C34.0829 17.9192 35.8258 18.4429 37.5692 18.4429C38.8475 18.4429 39.6608 17.9483 39.6608 17.1917C39.6316 15.0958 31.9621 16.7258 31.9037 11.4567C31.8746 8.77876 34.2571 6.71209 37.6275 6.71209C39.6316 6.71209 41.6367 7.20709 43.06 8.34251L41.9196 11.2558C40.61 10.4138 38.9925 9.82668 37.4529 9.82668C36.4071 9.82668 35.7096 10.3213 35.7096 10.9621C35.7387 13.0288 43.4671 11.8933 43.5541 16.9296C43.5541 19.6658 41.2296 21.5871 37.9175 21.5871C35.4775 21.5871 33.2404 21.005 31.5258 19.7821M80.1212 15.8967C79.8132 16.444 79.3651 16.8996 78.8229 17.2166C78.2807 17.5337 77.6639 17.7008 77.0358 17.7008C75.0783 17.7008 73.4917 16.1108 73.4917 14.1496C73.4917 12.1883 75.0783 10.5983 77.0358 10.5983C77.6639 10.5984 78.2807 10.7655 78.8229 11.0826C79.3651 11.3996 79.8132 11.8552 80.1212 12.4025L83.5142 10.5192C82.2433 8.24793 79.8191 6.71209 77.0358 6.71209C72.9362 6.71209 69.6129 10.0417 69.6129 14.1496C69.6129 18.2571 72.9362 21.5871 77.0358 21.5871C79.8191 21.5871 82.2433 20.0513 83.5142 17.78L80.1212 15.8967ZM45.7558 21.2958H49.9975V0.520844H45.7562L45.7558 21.2958ZM85.6562 0.520844V21.2958H89.8979V15.0717L94.9241 21.2958H100.346L93.9542 13.9017L99.8808 7.00209H94.6916L89.8979 12.7383V0.520844H85.6562ZM63.0654 7.00293V8.69168C62.3683 7.52709 60.6541 6.71209 58.8529 6.71209C55.1341 6.71209 52.2 10.0017 52.2 14.135C52.2 18.2683 55.1341 21.5871 58.8529 21.5871C60.6541 21.5871 62.3683 20.7721 63.0654 19.6075V21.2958H67.3071V7.00293H63.0654ZM63.0654 15.9254C62.4554 16.9442 61.1771 17.7004 59.7537 17.7004C57.7958 17.7004 56.2091 16.1108 56.2091 14.1496C56.2091 12.1883 57.7958 10.5983 59.7537 10.5983C61.1771 10.5983 62.4554 11.3842 63.0654 12.4317V15.9254Z" fill="white"/>
<path d="M9.12583 0.061676C7.75125 0.061676 6.63708 1.17834 6.63708 2.55543C6.63676 2.88258 6.70087 3.2066 6.82576 3.50898C6.95066 3.81135 7.13388 4.08617 7.36499 4.31774C7.59609 4.5493 7.87054 4.73308 8.17266 4.85858C8.47479 4.98408 8.79868 5.04885 9.12583 5.04918H11.615V2.55543C11.6156 1.89467 11.3536 1.26075 10.8868 0.793088C10.42 0.325431 9.78659 0.0623388 9.12583 0.061676M9.12583 6.71168H2.48875C1.11417 6.71168 0 7.82834 0 9.20584C0 10.5829 1.11417 11.6996 2.48875 11.6996H9.12625C10.5004 11.6996 11.615 10.5829 11.615 9.20584C11.615 7.82834 10.5004 6.71168 9.12583 6.71168" fill="#097EFF"/>
<path d="M24.8892 9.20584C24.8892 7.82834 23.7746 6.71168 22.4 6.71168C21.0254 6.71168 19.9113 7.82834 19.9113 9.20584V11.6996H22.4C23.0608 11.6989 23.6942 11.4358 24.161 10.9682C24.6278 10.5005 24.8897 9.8666 24.8892 9.20584M18.2521 9.20584V2.55543C18.2526 1.89467 17.9907 1.26075 17.5239 0.793088C17.0571 0.325431 16.4237 0.0623388 15.7629 0.061676C14.3883 0.061676 13.2742 1.17834 13.2742 2.55543V9.20543C13.2742 10.5833 14.3883 11.7 15.7629 11.7C16.4237 11.6993 17.0571 11.4363 17.5239 10.9686C17.9907 10.5009 18.2526 9.86702 18.2521 9.20626" fill="#097EFF"/>
<path d="M15.7629 25C16.4237 24.9993 17.0571 24.7363 17.5239 24.2686C17.9907 23.8009 18.2526 23.167 18.2521 22.5063C18.2526 21.8455 17.9907 21.2116 17.5239 20.7439C17.0571 20.2763 16.4237 20.0132 15.7629 20.0125H13.2742V22.5063C13.2742 23.8833 14.3883 25 15.7629 25ZM15.7629 18.35H22.4004C23.7746 18.35 24.8892 17.2333 24.8892 15.8558C24.8897 15.1951 24.6278 14.5612 24.161 14.0935C23.6942 13.6258 23.0608 13.3628 22.4 13.3621H15.7629C14.3883 13.3621 13.2742 14.4788 13.2742 15.8558C13.2738 16.183 13.338 16.507 13.4629 16.8094C13.5877 17.1118 13.771 17.3866 14.0021 17.6182C14.2332 17.8497 14.5076 18.0335 14.8098 18.159C15.1119 18.2845 15.4358 18.3493 15.7629 18.3496" fill="#ECB12F"/>
<path d="M1.25576e-06 15.8558C-0.000327214 16.183 0.0637857 16.507 0.188679 16.8094C0.313573 17.1118 0.496801 17.3866 0.727903 17.6182C0.959005 17.8497 1.23345 18.0335 1.53558 18.159C1.83771 18.2845 2.1616 18.3493 2.48875 18.3496C3.14951 18.3489 3.78295 18.0858 4.24975 17.6182C4.71654 17.1505 4.97847 16.5166 4.97792 15.8558V13.3621H2.48875C1.11417 13.3621 1.25576e-06 14.4788 1.25576e-06 15.8558M6.63708 15.8558V22.5058C6.63708 23.8833 7.75125 25 9.12583 25C9.78659 24.9993 10.42 24.7363 10.8868 24.2686C11.3536 23.8009 11.6156 23.167 11.615 22.5063V15.8558C11.6153 15.5287 11.5512 15.2046 11.4263 14.9022C11.3014 14.5998 11.1181 14.325 10.887 14.0934C10.6558 13.8618 10.3813 13.678 10.0791 13.5526C9.77696 13.4271 9.45303 13.3624 9.12583 13.3621C7.75125 13.3621 6.63708 14.4788 6.63708 15.8558Z" fill="#ECB12F"/>
</svg>
