<svg width="54" height="54" viewBox="0 0 54 54" fill="none" xmlns="http://www.w3.org/2000/svg">
<g clip-path="url(#clip0_140_2)">
<path fill-rule="evenodd" clip-rule="evenodd" d="M19.712 0.132996C19.0053 0.133652 18.3056 0.273519 17.6529 0.544608C17.0003 0.815698 16.4074 1.2127 15.9082 1.71294C15.409 2.21318 15.0132 2.80687 14.7434 3.46009C14.4737 4.11331 14.3352 4.81327 14.336 5.52C14.3353 6.22664 14.4739 6.92649 14.7437 7.5796C15.0135 8.2327 15.4093 8.82627 15.9085 9.3264C16.4077 9.82654 17.0006 10.2235 17.6532 10.4945C18.3058 10.7655 19.0054 10.9053 19.712 10.906H25.088V5.52C25.0888 4.81327 24.9504 4.11331 24.6806 3.46009C24.4108 2.80687 24.0151 2.21318 23.5158 1.71294C23.0166 1.2127 22.4237 0.815698 21.7711 0.544608C21.1184 0.273519 20.4187 0.133652 19.712 0.132996M19.712 14.498H5.376C4.66936 14.4987 3.96977 14.6385 3.31716 14.9095C2.66456 15.1805 2.07173 15.5775 1.57253 16.0776C1.07332 16.5777 0.677507 17.1713 0.407694 17.8244C0.13788 18.4775 -0.000653566 19.1774 3.348e-06 19.884C-0.000784982 20.5907 0.137651 21.2907 0.407406 21.9439C0.677161 22.5971 1.07295 23.1908 1.57217 23.691C2.07139 24.1913 2.66427 24.5883 3.31693 24.8594C3.9696 25.1305 4.66928 25.2703 5.376 25.271H19.712C20.4187 25.2703 21.1184 25.1305 21.7711 24.8594C22.4237 24.5883 23.0166 24.1913 23.5158 23.691C24.0151 23.1908 24.4108 22.5971 24.6806 21.9439C24.9504 21.2907 25.0888 20.5907 25.088 19.884C25.0887 19.1774 24.9501 18.4775 24.6803 17.8244C24.4105 17.1713 24.0147 16.5777 23.5155 16.0776C23.0163 15.5775 22.4234 15.1805 21.7708 14.9095C21.1182 14.6385 20.4186 14.4987 19.712 14.498" fill="#097EFF"/>
<path fill-rule="evenodd" clip-rule="evenodd" d="M53.76 19.884C53.7607 19.1774 53.6221 18.4775 53.3523 17.8244C53.0825 17.1713 52.6867 16.5777 52.1875 16.0776C51.6883 15.5775 51.0954 15.1805 50.4428 14.9095C49.7902 14.6385 49.0906 14.4987 48.384 14.498C47.6774 14.4987 46.9778 14.6385 46.3252 14.9095C45.6726 15.1805 45.0797 15.5775 44.5805 16.0776C44.0813 16.5777 43.6855 17.1713 43.4157 17.8244C43.1459 18.4775 43.0073 19.1774 43.008 19.884V25.271H48.384C49.0907 25.2703 49.7904 25.1305 50.4431 24.8594C51.0957 24.5883 51.6886 24.1913 52.1878 23.691C52.6871 23.1908 53.0828 22.5971 53.3526 21.9439C53.6224 21.2907 53.7608 20.5907 53.76 19.884ZM39.424 19.884V5.52C39.4248 4.81327 39.2864 4.11331 39.0166 3.46009C38.7468 2.80687 38.3511 2.21318 37.8518 1.71294C37.3526 1.2127 36.7597 0.815698 36.1071 0.544608C35.4544 0.273519 34.7547 0.133652 34.048 0.132996C33.3413 0.133652 32.6416 0.273519 31.9889 0.544608C31.3363 0.815698 30.7434 1.2127 30.2442 1.71294C29.7449 2.21318 29.3492 2.80687 29.0794 3.46009C28.8096 4.11331 28.6712 4.81327 28.672 5.52V19.884C28.6712 20.5907 28.8096 21.2907 29.0794 21.9439C29.3492 22.5971 29.7449 23.1908 30.2442 23.691C30.7434 24.1913 31.3363 24.5883 31.9889 24.8594C32.6416 25.1305 33.3413 25.2703 34.048 25.271C34.7547 25.2703 35.4544 25.1305 36.1071 24.8594C36.7597 24.5883 37.3526 24.1913 37.8518 23.691C38.3511 23.1908 38.7468 22.5971 39.0166 21.9439C39.2864 21.2907 39.4248 20.5907 39.424 19.884" fill="#097EFF"/>
<path fill-rule="evenodd" clip-rule="evenodd" d="M34.048 54C34.7547 53.9993 35.4544 53.8595 36.1071 53.5884C36.7597 53.3173 37.3526 52.9203 37.8518 52.4201C38.3511 51.9198 38.7468 51.3261 39.0166 50.6729C39.2864 50.0197 39.4248 49.3197 39.424 48.613C39.4247 47.9064 39.2861 47.2065 39.0163 46.5534C38.7465 45.9003 38.3507 45.3067 37.8515 44.8066C37.3523 44.3065 36.7594 43.9095 36.1068 43.6385C35.4542 43.3675 34.7546 43.2277 34.048 43.227H28.672V48.613C28.6712 49.3197 28.8096 50.0197 29.0794 50.6729C29.3492 51.3261 29.7449 51.9198 30.2442 52.4201C30.7434 52.9203 31.3363 53.3173 31.9889 53.5884C32.6416 53.8595 33.3413 53.9993 34.048 54ZM34.048 39.635H48.384C49.0906 39.6343 49.7902 39.4945 50.4428 39.2235C51.0954 38.9525 51.6883 38.5555 52.1875 38.0554C52.6867 37.5553 53.0825 36.9617 53.3523 36.3086C53.6221 35.6555 53.7607 34.9556 53.76 34.249C53.7608 33.5423 53.6224 32.8423 53.3526 32.1891C53.0828 31.5359 52.6871 30.9422 52.1878 30.4419C51.6886 29.9417 51.0957 29.5447 50.4431 29.2736C49.7904 29.0025 49.0907 28.8627 48.384 28.862H34.048C33.3413 28.8627 32.6416 29.0025 31.9889 29.2736C31.3363 29.5447 30.7434 29.9417 30.2442 30.4419C29.7449 30.9422 29.3492 31.5359 29.0794 32.1891C28.8096 32.8423 28.6712 33.5423 28.672 34.249C28.6713 34.9556 28.8099 35.6555 29.0797 36.3086C29.3495 36.9617 29.7453 37.5553 30.2445 38.0554C30.7437 38.5555 31.3366 38.9525 31.9892 39.2235C32.6418 39.4945 33.3414 39.6343 34.048 39.635" fill="#ECB12F"/>
<path fill-rule="evenodd" clip-rule="evenodd" d="M4.55649e-06 34.249C-0.000652358 34.9556 0.137881 35.6555 0.407695 36.3086C0.677509 36.9617 1.07332 37.5553 1.57253 38.0554C2.07173 38.5555 2.66456 38.9525 3.31717 39.2235C3.96977 39.4945 4.66936 39.6343 5.376 39.635C6.08265 39.6343 6.78224 39.4945 7.43484 39.2235C8.08745 38.9525 8.68027 38.5555 9.17948 38.0554C9.67869 37.5553 10.0745 36.9617 10.3443 36.3086C10.6141 35.6555 10.7527 34.9556 10.752 34.249V28.862H5.376C4.66919 28.8627 3.96944 29.0026 3.3167 29.2737C2.66397 29.5449 2.07105 29.942 1.57182 30.4423C1.07258 30.9426 0.676816 31.5364 0.40712 32.1898C0.137424 32.8431 -0.000915221 33.5432 4.55649e-06 34.25M14.336 34.249V48.613C14.3352 49.3197 14.4737 50.0197 14.7434 50.6729C15.0132 51.3261 15.409 51.9198 15.9082 52.4201C16.4074 52.9203 17.0003 53.3173 17.6529 53.5884C18.3056 53.8595 19.0053 53.9993 19.712 54C20.4187 53.9993 21.1184 53.8595 21.7711 53.5884C22.4237 53.3173 23.0166 52.9203 23.5158 52.4201C24.0151 51.9198 24.4108 51.3261 24.6806 50.6729C24.9504 50.0197 25.0888 49.3197 25.088 48.613V34.25C25.0888 33.5433 24.9504 32.8433 24.6806 32.1901C24.4108 31.5369 24.0151 30.9432 23.5158 30.4429C23.0166 29.9427 22.4237 29.5457 21.7711 29.2746C21.1184 29.0035 20.4187 28.8637 19.712 28.863C19.0053 28.8637 18.3056 29.0035 17.6529 29.2746C17.0003 29.5457 16.4074 29.9427 15.9082 30.4429C15.409 30.9432 15.0132 31.5369 14.7434 32.1901C14.4737 32.8433 14.3352 33.5433 14.336 34.25" fill="#ECB12F"/>
</g>
<defs>
<clipPath id="clip0_140_2">
<rect width="54" height="54" fill="white"/>
</clipPath>
</defs>
</svg>
